<svg width="200" height="150" viewBox="0 0 200 150" fill="none" xmlns="http://www.w3.org/2000/svg">
  <!-- House -->
  <path d="M100 25L50 60V120H85V90H115V120H150V60L100 25Z" fill="#FFF0E0" stroke="#FE9200" stroke-width="2"/>
  <path d="M100 20L45 58V60L100 25L155 60V58L100 20Z" fill="#FE9200"/>
  
  <!-- Door -->
  <rect x="90" y="85" width="20" height="35" rx="2" fill="#FE9200"/>
  <circle cx="105" cy="105" r="2" fill="white"/>
  
  <!-- Windows -->
  <rect x="60" y="70" width="18" height="18" rx="2" fill="#E0F2FE" stroke="#FE9200"/>
  <rect x="122" y="70" width="18" height="18" rx="2" fill="#E0F2FE" stroke="#FE9200"/>
  
  <!-- Key Icon -->
  <circle cx="165" cy="40" r="18" fill="#DCFCE7"/>
  <circle cx="165" cy="38" r="6" stroke="#22C55E" stroke-width="2" fill="none"/>
  <path d="M165 44V52" stroke="#22C55E" stroke-width="2"/>
  <path d="M165 48H170" stroke="#22C55E" stroke-width="2"/>
  
  <!-- Celebration Elements -->
  <path d="M40 40L42 35L44 40L42 45Z" fill="#FE9200"/>
  <path d="M160 85L162 80L164 85L162 90Z" fill="#22C55E"/>
  <circle cx="50" cy="90" r="3" fill="#FE9200" opacity="0.5"/>
  <circle cx="150" cy="110" r="3" fill="#22C55E" opacity="0.5"/>
</svg>
